<svg width="200" height="200" xmlns="http://www.w3.org/2000/svg">
    <rect width="200" height="200" fill="white" />

    <g id="book">
      <path
        d="M50 150 Q75 100 100 150 L100 50 Q75 0 50 50 Z"
        fill="#FCF5E5"
        stroke="#8B5E3C"
        strokeWidth="2"
      />
      {/* Right Page */}
      <path
        d="M100 150 Q125 100 150 150 L150 50 Q125 0 100 50 Z"
        fill="#FCF5E5"
        stroke="#8B5E3C"
        strokeWidth="2"
      />
      {/* Center Fold */}
      <path d="M100 50 L100 150" stroke="#D2B48C" strokeWidth="1" />
    </g>

    <path
      d="M95 70 L95 110 L100 105 L105 110 L105 70 Q100 60 95 70 Z"
      fill="#FF7F50"
      stroke="#FF4500"
      strokeWidth="1"
    />

    <g id="pixels">
      <rect x="130" y="40" width="14" height="14" fill="#1E90FF" opacity="0.8" />
      <rect x="146" y="56" width="12" height="12" fill="#1E90FF" opacity="0.6" />
      <rect x="160" y="70" width="10" height="10" fill="#1E90FF" opacity="0.4" />
      <rect x="172" y="82" width="8" height="8" fill="#1E90FF" opacity="0.2" />
      <rect x="182" y="92" width="6" height="6" fill="#1E90FF" opacity="0.1" />
    </g>

    <ellipse cx="100" cy="155" rx="55" ry="10" fill="#000000" opacity="0.05" />

    <text
      x="100"
      y="190"
      fontFamily="'Segoe UI', Tahoma, Geneva, Verdana, sans-serif"
      fontSize="22"
      fill="#333333"
      textAnchor="middle"
    >
      PaperMote
    </text>
  </svg>